name analog
datacolumns 19
datarows 30
range 0.0 0.0145
endheader
time	ground_force_vx	ground_force_vy	ground_force_vz	ground_force_px	ground_force_py	ground_force_pz	l_ground_force_vx	l_ground_force_vy	l_ground_force_vz	l_ground_force_px	l_ground_force_py	l_ground_force_pz	ground_torque_x	ground_torque_y	ground_torque_z	l_ground_torque_x	l_ground_torque_y	l_ground_torque_z
0.0	-0.0	-0.0	-0.0	-0.5352630615234375	130.6651611328125	-833.8627319335938	-0.0	-0.0	-0.0	-0.0	-0.0	-0.0	-0.0	-0.0	-0.0	-0.0	-0.0	-0.0
0.0005	-0.0	-0.0	-0.0	-0.9710641503334044	130.0361328125	-831.76416015625	-0.0	-0.0	-0.0	-0.0	-0.0	-0.0	-0.0	-0.0	-0.0	-0.0	-0.0	-0.0
0.001	-0.0	-0.0	-0.0	0.0812888741493225	129.5091094970703	-829.9833374023438	-0.0	-0.0	-0.0	-0.0	-0.0	-0.0	-0.0	-0.0	-0.0	-0.0	-0.0	-0.0
0.0015	-0.0	-0.0	-0.0	-0.0053469538688659	129.33355712890625	-826.467529296875	-0.0	-0.0	-0.0	-0.0	-0.0	-0.0	-0.0	-0.0	-0.0	-0.0	-0.0	-0.0
0.002	-0.0	-0.0	-0.0	0.4460525512695312	128.61517333984375	-826.0552368164062	-0.0	-0.0	-0.0	-0.0	-0.0	-0.0	-0.0	-0.0	-0.0	-0.0	-0.0	-0.0
0.0025	-0.0	-0.0	-0.0	-0.0920393317937851	127.9063720703125	-822.5672607421875	-0.0	-0.0	-0.0	-0.0	-0.0	-0.0	-0.0	-0.0	-0.0	-0.0	-0.0	-0.0
0.003	-0.0	-0.0	-0.0	-0.6115438938140869	126.83831024169922	-815.9082641601562	-0.0	-0.0	-0.0	-0.0	-0.0	-0.0	-0.0	-0.0	-0.0	-0.0	-0.0	-0.0
0.0035	-0.0	-0.0	-0.0	0.358317494392395	126.1209945678711	-810.2240600585938	-0.0	-0.0	-0.0	-0.0	-0.0	-0.0	-0.0	-0.0	-0.0	-0.0	-0.0	-0.0
0.004	-0.0	-0.0	-0.0	-0.2661172151565552	124.96688079833984	-803.1312255859375	-0.0	-0.0	-0.0	-0.0	-0.0	-0.0	-0.0	-0.0	-0.0	-0.0	-0.0	-0.0
0.0045000000000000005	-0.0	-0.0	-0.0	-0.3645259439945221	124.51824188232422	-795.3673095703125	-0.0	-0.0	-0.0	-0.0	-0.0	-0.0	-0.0	-0.0	-0.0	-0.0	-0.0	-0.0
0.005	-0.0	-0.0	-0.0	-0.2833849191665649	122.82170104980467	-786.5504760742188	-0.0	-0.0	-0.0	-0.0	-0.0	-0.0	-0.0	-0.0	-0.0	-0.0	-0.0	-0.0
0.0055	-0.0	-0.0	-0.0	-0.3584562242031097	120.69386291503906	-780.546875	-0.0	-0.0	-0.0	-0.0	-0.0	-0.0	-0.0	-0.0	-0.0	-0.0	-0.0	-0.0
0.006	-0.0	-0.0	-0.0	-1.0672200918197632	119.97613525390624	-775.570068359375	-0.0	-0.0	-0.0	-0.0	-0.0	-0.0	-0.0	-0.0	-0.0	-0.0	-0.0	-0.0
0.006500000000000001	-0.0	-0.0	-0.0	-0.8196452856063843	119.26485443115234	-772.4310913085938	-0.0	-0.0	-0.0	-0.0	-0.0	-0.0	-0.0	-0.0	-0.0	-0.0	-0.0	-0.0
0.007	-0.0	-0.0	-0.0	-2.056983470916748	119.0816421508789	-768.5127563476562	-0.0	-0.0	-0.0	-0.0	-0.0	-0.0	-0.0	-0.0	-0.0	-0.0	-0.0	-0.0
0.0075	-0.0	-0.0	-0.0	-3.2045674324035645	118.88945770263672	-764.3160400390625	-0.0	-0.0	-0.0	-0.0	-0.0	-0.0	-0.0	-0.0	-0.0	-0.0	-0.0	-0.0
0.008	-0.0	-0.0	-0.0	-3.655855894088745	118.45075225830078	-763.1936645507812	-0.0	-0.0	-0.0	-0.0	-0.0	-0.0	-0.0	-0.0	-0.0	-0.0	-0.0	-0.0
0.0085	-0.0	-0.0	-0.0	-4.371315002441406	118.80900573730467	-761.7803344726562	-0.0	-0.0	-0.0	-0.0	-0.0	-0.0	-0.0	-0.0	-0.0	-0.0	-0.0	-0.0
0.009000000000000001	-0.0	-0.0	-0.0	-3.839757442474365	118.97613525390624	-760.4183959960938	-0.0	-0.0	-0.0	-0.0	-0.0	-0.0	-0.0	-0.0	-0.0	-0.0	-0.0	-0.0
0.0095	-0.0	-0.0	-0.0	-3.3956069946289062	118.89996337890624	-757.9537963867188	-0.0	-0.0	-0.0	-0.0	-0.0	-0.0	-0.0	-0.0	-0.0	-0.0	-0.0	-0.0
0.01	-0.0	-0.0	-0.0	-3.651906967163086	119.07821655273438	-761.0574340820312	-0.0	-0.0	-0.0	-0.0	-0.0	-0.0	-0.0	-0.0	-0.0	-0.0	-0.0	-0.0
0.0105	-0.0	-0.0	-0.0	-3.124314785003662	119.86287689208984	-762.1546630859375	-0.0	-0.0	-0.0	-0.0	-0.0	-0.0	-0.0	-0.0	-0.0	-0.0	-0.0	-0.0
0.011	-0.0	-0.0	-0.0	-2.244044542312622	119.8744888305664	-763.1906127929688	16.419292449951172	-1.5568832159042358	-20.515470504760746	-0.0	-0.0	-0.0	-0.0	-0.0	-0.0	3139.2607421875	1311.905517578125	2916.284423828125
0.0115	-0.0	-0.0	-0.0	-1.4253605604171753	120.49427032470705	-763.944091796875	24.66722297668457	-3.0085372924804688	-41.11872100830078	-0.0	-0.0	-0.0	-0.0	-0.0	-0.0	7440.74658203125	2940.17041015625	4439.228515625
0.012	-0.0	-0.0	-0.0	-0.2737710177898407	119.791259765625	-761.8009643554688	9.746014595031738	-2.9108054637908936	-39.484256744384766	-0.0	-0.0	-0.0	-0.0	-0.0	-0.0	7135.0771484375	2810.130859375	1797.5516357421875
0.0125	-0.0	-0.0	-0.0	1.0519059896469116	120.23277282714844	-758.9754638671875	-3.1548736095428467	-4.7732253074646	-34.239715576171875	-0.0	-0.0	-0.0	-0.0	-0.0	-0.0	6353.22509765625	2334.3818359375	-915.27392578125
0.013000000000000001	-0.0	-0.0	-0.0	1.956309199333191	119.78915405273438	-753.0213012695312	-10.446158409118652	-7.49358606338501	-40.09028244018555	-0.0	-0.0	-0.0	-0.0	-0.0	-0.0	7359.98681640625	2803.954345703125	-2556.479736328125
0.0135	-0.0	-0.0	-0.0	3.995157241821289	118.46501922607422	-749.430908203125	-10.119067192077637	-13.127870559692385	-57.86411285400391	-0.0	-0.0	-0.0	-0.0	-0.0	-0.0	11056.7578125	4572.9912109375	-3065.92724609375
0.014	-0.0	-0.0	-0.0	4.638946533203125	117.29779052734376	-745.9678955078125	-12.221575736999512	-17.64187240600586	-71.50341796875	-0.0	-0.0	-0.0	-0.0	-0.0	-0.0	13247.1806640625	5281.30712890625	-3837.090576171875
0.0145	-0.0	-0.0	-0.0	5.611433506011963	116.50666809082033	-742.4192504882812	-16.483619689941406	-19.87237930297852	-71.24324798583984	-0.0	-0.0	-0.0	-0.0	-0.0	-0.0	13557.6650390625	5505.5654296875	-4731.96630859375
